<svg xmlns="http://www.w3.org/2000/svg" viewBox="0 0 26.034 32"><path d="M21.745 17.018a7.272 7.272 0 0 1 3.463-6.1 7.444 7.444 0 0 0-5.865-3.171c-2.468-.259-4.86 1.477-6.117 1.477-1.282 0-3.218-1.451-5.3-1.408a7.811 7.811 0 0 0-6.573 4.009c-2.842 4.921-.722 12.152 2 16.129C4.715 29.902 6.307 32.077 8.39 32c2.038-.085 2.8-1.3 5.26-1.3 2.438 0 3.152 1.3 5.277 1.251 2.187-.035 3.565-1.956 4.88-3.922a16.109 16.109 0 0 0 2.231-4.544 7.027 7.027 0 0 1-4.29-6.465ZM17.731 5.129a7.16 7.16 0 0 0 1.638-5.13 7.285 7.285 0 0 0-4.714 2.439 6.813 6.813 0 0 0-1.681 4.94 6.024 6.024 0 0 0 4.757-2.249Z"/></svg>