<svg width="48" height="48" viewBox="0 0 48 48" fill="none" xmlns="http://www.w3.org/2000/svg">
<rect width="48" height="48" fill="white"/>
<path d="M34.6247 11H14.0317C12.3573 11 11 12.3573 11 14.0317V33.5292C11 35.2036 12.3573 36.5609 14.0317 36.5609H34.6247C36.2991 36.5609 37.6565 35.2036 37.6565 33.5292V14.0317C37.6565 12.3573 36.2991 11 34.6247 11Z" fill="black"/>
<path d="M17.0783 19.6618H19.414C20.7512 19.6618 21.5893 20.4285 21.5893 21.6499C21.5893 22.889 20.7958 23.6201 19.4408 23.6201H17.0783V19.6618ZM17.0783 25.6883H19.2803L21.6784 30.3509H24.7273L22.0172 25.2694C23.4971 24.681 24.3529 23.2546 24.3529 21.6142C24.3529 19.0556 22.6145 17.4866 19.7884 17.4866H14.386V30.3509H17.0783V25.6883Z" fill="white"/>
<path d="M29.8227 22.2926C31.0352 22.2926 31.8197 23.1038 31.8732 24.4054H27.6832C27.7723 23.1306 28.6192 22.2926 29.8227 22.2926ZM31.9267 27.5524C31.6503 28.2033 30.946 28.5687 29.9208 28.5687C28.5657 28.5687 27.7099 27.6594 27.6742 26.1973V26.0636H34.4228V25.2702C34.4228 22.15 32.7112 20.3046 29.8138 20.3046C26.8897 20.3046 25.0889 22.2837 25.0889 25.4842C25.0889 28.6757 26.8541 30.5656 29.8495 30.5656C32.2565 30.5656 33.9503 29.4068 34.3427 27.5524H31.9267Z" fill="white"/>
</svg>
