<svg width="48" height="48" viewBox="0 0 48 48" fill="none" xmlns="http://www.w3.org/2000/svg">
<rect width="48" height="48" fill="white"/>
<path fill-rule="evenodd" clip-rule="evenodd" d="M21.7541 12.0991C32.8277 10.2766 36.0181 12.2821 37.9861 22.7191C39.9565 33.1539 37.9525 36.0166 26.6213 37.8834C15.2893 39.7486 12.3597 37.7034 10.3893 27.2649C8.41809 16.8249 10.6813 13.9239 21.7541 12.0991ZM23.0301 16.7101C20.9101 17.0596 19.3773 17.9686 18.4957 19.2901C17.8037 20.3281 17.5829 21.5439 17.7829 22.5286C18.2245 24.6999 20.1429 26.0664 24.0301 26.3424L24.3341 26.3626L24.6357 26.3851L24.9221 26.4106C26.2773 26.5374 27.1445 26.7526 27.6229 27.0294C27.9429 27.2131 28.0709 27.4141 28.1621 27.9009C28.3365 28.8249 27.5661 29.6619 25.5381 29.9956C24.1965 30.2169 22.7645 29.9506 21.1997 29.1534C20.8052 28.9527 20.342 28.9065 19.9114 29.025C19.4807 29.1434 19.1175 29.4169 18.9013 29.7856C18.7946 29.9681 18.7275 30.1685 18.7038 30.3753C18.6801 30.5822 18.7003 30.7914 18.7632 30.9909C18.8261 31.1904 18.9305 31.3763 19.0703 31.5379C19.2102 31.6994 19.3828 31.8334 19.5781 31.9321C21.7861 33.0571 23.9853 33.4651 26.1269 33.1126C29.8653 32.4969 32.0269 30.1509 31.4989 27.3511C30.9965 24.6931 28.9901 23.5066 24.5621 23.2051L24.2701 23.1856C22.8445 23.0836 21.9517 22.8249 21.4805 22.4956C21.2477 22.3321 21.1613 22.1881 21.1101 21.9391C21.0661 21.7171 21.1397 21.3099 21.3701 20.9641C21.7245 20.4346 22.4141 20.0251 23.6189 19.8271C24.6869 19.6509 25.7189 19.8196 26.7765 20.3566C27.021 20.4806 27.2943 20.5463 27.5722 20.5481C27.8502 20.5498 28.1244 20.4875 28.3707 20.3666C28.6169 20.2457 28.8278 20.07 28.9846 19.8548C29.1414 19.6396 29.2395 19.3916 29.2701 19.1326C29.3056 18.8211 29.2413 18.5066 29.0854 18.2295C28.9296 17.9523 28.6892 17.7249 28.3949 17.5764C26.6757 16.7034 24.8669 16.4071 23.0301 16.7101Z" fill="#F97316"/>
</svg>
